<mxfile host="app.diagrams.net" modified="2020-05-30T06:39:55.624Z" agent="5.0 (Macintosh; Intel Mac OS X 10_14_2) AppleWebKit/537.36 (KHTML, like Gecko) Chrome/83.0.4103.61 Safari/537.36 Edg/83.0.478.37" etag="qJLDZbn-mUNSDSOsuA3h" version="13.1.8" type="github">
  <diagram id="zHYWZ5WFRh6stsw3p-Ie" name="Page-1">
    <mxGraphModel dx="946" dy="516" grid="1" gridSize="10" guides="1" tooltips="1" connect="1" arrows="1" fold="1" page="1" pageScale="1" pageWidth="827" pageHeight="1169" math="0" shadow="0">
      <root>
        <mxCell id="0" />
        <mxCell id="1" parent="0" />
        <mxCell id="QNxVq8vLhmJwMhwPbkC3-1" value="scheduler" style="rounded=0;whiteSpace=wrap;html=1;fillColor=none;strokeWidth=2;" vertex="1" parent="1">
          <mxGeometry x="130" y="140" width="190" height="80" as="geometry" />
        </mxCell>
        <mxCell id="QNxVq8vLhmJwMhwPbkC3-2" value="evalHandler" style="rounded=0;whiteSpace=wrap;html=1;fillColor=none;strokeWidth=2;" vertex="1" parent="1">
          <mxGeometry x="130" y="260" width="190" height="80" as="geometry" />
        </mxCell>
        <mxCell id="QNxVq8vLhmJwMhwPbkC3-3" value="ruleReader" style="rounded=0;whiteSpace=wrap;html=1;fillColor=none;strokeWidth=2;" vertex="1" parent="1">
          <mxGeometry x="360" y="140" width="190" height="80" as="geometry" />
        </mxCell>
        <mxCell id="QNxVq8vLhmJwMhwPbkC3-4" value="resultHandler" style="rounded=0;whiteSpace=wrap;html=1;fillColor=none;strokeWidth=2;" vertex="1" parent="1">
          <mxGeometry x="360" y="260" width="190" height="80" as="geometry" />
        </mxCell>
      </root>
    </mxGraphModel>
  </diagram>
</mxfile>
